<svg width="20" height="20" viewBox="0 0 20 20" fill="none" xmlns="http://www.w3.org/2000/svg">
<path d="M7.50002 4.16667C7.50002 2.78596 8.61931 1.66667 10 1.66667C11.3807 1.66667 12.5 2.78596 12.5 4.16667V9.16667C12.5 10.5474 11.3807 11.6667 10 11.6667C8.61931 11.6667 7.50002 10.5474 7.50002 9.16667V4.16667Z" fill="black"/>
<path d="M15.8334 9.16667C15.8334 12.3883 13.2217 15 10 15M10 15C6.77836 15 4.16669 12.3883 4.16669 9.16667M10 15V18.3333M10 11.6667C8.61931 11.6667 7.50002 10.5474 7.50002 9.16667V4.16667C7.50002 2.78596 8.61931 1.66667 10 1.66667C11.3807 1.66667 12.5 2.78596 12.5 4.16667V9.16667C12.5 10.5474 11.3807 11.6667 10 11.6667Z" stroke="#111827" stroke-linecap="round" stroke-linejoin="round"/>
</svg>
