<svg width="21" height="21" viewBox="0 0 21 21" fill="none" xmlns="http://www.w3.org/2000/svg">
<path fill-rule="evenodd" clip-rule="evenodd" d="M8.40004 4.2C6.08044 4.2 4.20004 6.0804 4.20004 8.4C4.20004 10.7196 6.08044 12.6 8.40004 12.6C10.7196 12.6 12.6 10.7196 12.6 8.4C12.6 6.0804 10.7196 4.2 8.40004 4.2ZM2.10004 8.4C2.10004 4.9206 4.92064 2.1 8.40004 2.1C11.8794 2.1 14.7 4.9206 14.7 8.4C14.7 9.76062 14.2687 11.0205 13.5353 12.0504L18.5925 17.1075C19.0026 17.5176 19.0026 18.1824 18.5925 18.5925C18.1824 19.0025 17.5176 19.0025 17.1076 18.5925L12.0504 13.5353C11.0205 14.2687 9.76066 14.7 8.40004 14.7C4.92064 14.7 2.10004 11.8794 2.10004 8.4Z" fill="#FF2626"/>
</svg>
