<svg width="20" height="21" viewBox="0 0 20 21" fill="none" xmlns="http://www.w3.org/2000/svg">
<path d="M6.2896 18.6256C13.8368 18.6256 17.9648 12.3728 17.9648 6.95035C17.9648 6.77275 17.9648 6.59595 17.9528 6.41995C18.7559 5.83908 19.4491 5.11986 20 4.29595C19.2512 4.62795 18.4567 4.84558 17.6432 4.94155C18.4998 4.42879 19.141 3.6222 19.4472 2.67195C18.6417 3.14996 17.7605 3.48681 16.8416 3.66795C16.2229 3.0101 15.4047 2.57449 14.5135 2.42852C13.6223 2.28256 12.7078 2.43438 11.9116 2.8605C11.1154 3.28661 10.4819 3.96326 10.109 4.78574C9.73605 5.60822 9.64462 6.53067 9.8488 7.41035C8.21741 7.32852 6.62146 6.90455 5.16455 6.16596C3.70763 5.42737 2.4223 4.39067 1.392 3.12315C0.867274 4.02648 0.70656 5.09584 0.942583 6.1135C1.17861 7.13117 1.79362 8.02061 2.6624 8.60075C2.00936 8.58162 1.37054 8.40545 0.8 8.08715V8.13915C0.800259 9.08653 1.12821 10.0046 1.72823 10.7378C2.32824 11.4709 3.16338 11.974 4.092 12.1616C3.4879 12.3263 2.85406 12.3504 2.2392 12.232C2.50151 13.0472 3.01202 13.7602 3.69937 14.2711C4.38671 14.782 5.21652 15.0654 6.0728 15.0816C5.22203 15.7503 4.24776 16.2447 3.20573 16.5366C2.16369 16.8284 1.07435 16.9119 0 16.7824C1.87653 17.9865 4.05994 18.6253 6.2896 18.6224" fill="#1DA1F2"/>
</svg>
